<?xml version="1.0" encoding="UTF-8"?>
<svg id="b" data-name="Layer 2" xmlns="http://www.w3.org/2000/svg" viewBox="0 0 543.4 226.33">
  <g id="c" data-name="Layer 1">
    <g>
      <path d="M61.4,211.7h6.3v3H2.6l.3-3h6.3c4.4,0,8.25-1.6,11.55-4.8,3.3-3.2,4.95-7,4.95-11.4V37.4c0-9.8-4.6-14.7-13.8-14.7H.5v-3c9.4-1.2,17.3-3.1,23.7-5.7,6.4-2.6,12.3-7.1,17.7-13.5h3v195c0,4.6,1.6,8.45,4.8,11.55,3.2,3.1,7.1,4.65,11.7,4.65Z" style="fill: #b1880b; stroke: #b1880b;"/>
      <path d="M211.7,94.25c0-28.1-3.9-49.15-11.7-63.15-7.8-14-18.9-21-33.3-21s-24.95,5.2-31.65,15.6c-6.7,10.4-10.05,23.35-10.05,38.85s3.55,27.9,10.65,37.2c7.1,9.3,17.35,13.95,30.75,13.95s24.1-5.2,32.1-15.6l1.5,2.7c-5.8,7.4-12.8,13.15-21,17.25-8.2,4.1-16.4,6.15-24.6,6.15-20.2,0-34.9-8.1-44.1-24.3-5.2-9.4-7.8-20.9-7.8-34.5,0-19.4,5.8-35.2,17.4-47.4,12-12.6,27.95-18.9,47.85-18.9s35.95,7.55,48.15,22.65c12.2,15.1,18.3,36.35,18.3,63.75,0,20.4-3.6,40.7-10.8,60.9-7,20.2-18,37.6-33,52.2-15.4,14.8-34.4,23.2-57,25.2l-.9-2.1c13.6-3.8,25.6-10.15,36-19.05,10.4-8.9,18.7-19.55,24.9-31.95,12.2-24.2,18.3-50.35,18.3-78.45Z" style="fill: #b1880b; stroke: #b1880b;"/>
      <path d="M286.7,21.2c-5.8,0-10.4,1.45-13.8,4.35-3.4,2.9-6.3,7.45-8.7,13.65h-3l8.4-33.9h120l-32.4,86.4c-6,16.2-13.35,37.15-22.05,62.85-8.7,25.7-14.75,45.75-18.15,60.15h-21c22.6-56.8,38.9-98.2,48.9-124.2l26.4-69.3h-84.6Z" style="fill: #b1880b; stroke: #b1880b;"/>
      <path d="M525.2,203.15c-11.8,10.5-27.55,15.75-47.25,15.75s-35.4-5.25-47.1-15.75c-11.7-10.5-17.55-23.75-17.55-39.75,0-13.8,3.7-25.35,11.1-34.65,7.4-9.3,18.1-17.25,32.1-23.85-21.6-15.6-32.4-33.7-32.4-54.3,0-14.4,4.9-26.3,14.7-35.7,10-9.6,23.1-14.4,39.3-14.4s29.25,4.5,39.15,13.5c9.9,9,14.85,21.4,14.85,37.2,0,12-3.2,22.55-9.6,31.65-6.4,9.1-15.5,15.75-27.3,19.95,18.2,9,30.7,18,37.5,27,6.8,9.4,10.2,20.2,10.2,32.4,0,16.8-5.9,30.45-17.7,40.95ZM435.8,164.3c0,13.8,3.75,24.85,11.25,33.15,7.5,8.3,18,12.45,31.5,12.45s23.85-4.25,31.05-12.75c7.2-8.5,10.8-18.75,10.8-30.75,0-7.2-.85-12.55-2.55-16.05-1.7-3.5-3.2-6.25-4.5-8.25-1.3-2-3-3.95-5.1-5.85-2.1-1.9-3.95-3.5-5.55-4.8-1.6-1.3-3.75-2.7-6.45-4.2-2.7-1.5-4.85-2.7-6.45-3.6-1.6-.9-3.9-2.05-6.9-3.45-7-3.6-12.8-6.8-17.4-9.6-19.8,13.4-29.7,31.3-29.7,53.7ZM446.6,46.7c0,19.6,10.3,35.3,30.9,47.1l6.6,3.6c17-12.6,25.5-28.8,25.5-48.6,0-12-2.8-21.55-8.4-28.65-5.6-7.1-13.3-10.65-23.1-10.65s-17.5,3.65-23.1,10.95c-5.6,7.3-8.4,16.05-8.4,26.25Z" style="fill: #b1880b; stroke: #b1880b;"/>
    </g>
  </g>
</svg>