<?xml version="1.0" encoding="UTF-8"?>
<svg id="b" data-name="Layer 2" xmlns="http://www.w3.org/2000/svg" viewBox="0 0 342.78 332.28">
  <g id="c" data-name="Layer 1">
    <g>
      <path d="M81.52,2.96h28.29v157.85c0,34.44-4.1,47.97-17.22,57.81h17.22v74.62c0,18.04,4.51,31.98,7.79,35.67l2.87,2.87h-27.88c-.82-.41-2.05-.82-3.28-2.05-2.05-2.05-7.79-15.58-7.79-36.49v-54.94h-26.24v93.48h-28.7v-93.48H.75l11.07-26.24h14.76V2.96h28.7v209.1h6.56c14.35,0,19.68-13.53,19.68-44.69V2.96Z" style="fill: none; stroke: #eae6e1;"/>
      <path d="M168.44,331.78V44.78c0-29.52,13.53-44.28,41-44.28s41.82,14.76,41.82,44.28v287h-28.29v-93.48h-26.24v93.48h-28.29ZM222.97,212.06V41.5c0-10.66-4.51-15.99-13.12-15.99s-13.12,5.33-13.12,15.99v170.56h26.24Z" style="fill: none; stroke: #eae6e1;"/>
      <path d="M342.28,2.96v328.82h-28.29V2.96h28.29Z" style="fill: none; stroke: #eae6e1;"/>
    </g>
  </g>
</svg>